<mxfile host="app.diagrams.net" modified="2023-11-06T18:19:24.255Z" agent="Mozilla/5.0 (Macintosh; Intel Mac OS X 10_15_7) AppleWebKit/537.36 (KHTML, like Gecko) Chrome/114.0.0.0 Safari/537.36" etag="IjFUqRUWJBo8gZJ53yAQ" version="22.0.8" type="google">
  <diagram name="페이지-1" id="jn4sMiP9s70f7-l1vZrY">
    <mxGraphModel grid="1" page="1" gridSize="10" guides="1" tooltips="1" connect="1" arrows="1" fold="1" pageScale="1" pageWidth="827" pageHeight="1169" math="0" shadow="0">
      <root>
        <mxCell id="0" />
        <mxCell id="1" parent="0" />
        <mxCell id="PepKY24ciugbxsMnABmu-1" value="Test Driven Development" style="rounded=0;whiteSpace=wrap;html=1;sketch=1;hachureGap=4;jiggle=2;curveFitting=1;fontFamily=Architects Daughter;fontSource=https%3A%2F%2Ffonts.googleapis.com%2Fcss%3Ffamily%3DArchitects%2BDaughter;fontSize=20;" vertex="1" parent="1">
          <mxGeometry x="160" y="40" width="480" height="40" as="geometry" />
        </mxCell>
        <mxCell id="PepKY24ciugbxsMnABmu-2" value="실제 코드를 작성하기 전에 테스트 코드를 먼저 작성한 후, 그 테스트 코드를 통과할 수 있는 실제 코드를 작성하는 과정" style="rounded=0;whiteSpace=wrap;html=1;sketch=1;hachureGap=4;jiggle=2;curveFitting=1;fontFamily=Architects Daughter;fontSource=https%3A%2F%2Ffonts.googleapis.com%2Fcss%3Ffamily%3DArchitects%2BDaughter;fontSize=20;" vertex="1" parent="1">
          <mxGeometry x="84" y="120" width="660" height="80" as="geometry" />
        </mxCell>
        <mxCell id="PepKY24ciugbxsMnABmu-3" value="원하는 기능의 &lt;br&gt;테스트 코드 작성" style="rounded=0;whiteSpace=wrap;html=1;sketch=1;hachureGap=4;jiggle=2;curveFitting=1;fontFamily=Architects Daughter;fontSource=https%3A%2F%2Ffonts.googleapis.com%2Fcss%3Ffamily%3DArchitects%2BDaughter;fontSize=20;" vertex="1" parent="1">
          <mxGeometry x="40" y="240" width="160" height="130" as="geometry" />
        </mxCell>
        <mxCell id="PepKY24ciugbxsMnABmu-4" value="테스트 실행&lt;br&gt;실패" style="rounded=0;whiteSpace=wrap;html=1;sketch=1;hachureGap=4;jiggle=2;curveFitting=1;fontFamily=Architects Daughter;fontSource=https%3A%2F%2Ffonts.googleapis.com%2Fcss%3Ffamily%3DArchitects%2BDaughter;fontSize=20;fillColor=#FF3333;" vertex="1" parent="1">
          <mxGeometry x="240" y="240" width="160" height="130" as="geometry" />
        </mxCell>
        <mxCell id="PepKY24ciugbxsMnABmu-5" value="테스트 실행&lt;br&gt;성공" style="rounded=0;whiteSpace=wrap;html=1;sketch=1;hachureGap=4;jiggle=2;curveFitting=1;fontFamily=Architects Daughter;fontSource=https%3A%2F%2Ffonts.googleapis.com%2Fcss%3Ffamily%3DArchitects%2BDaughter;fontSize=20;fillColor=#66CC00;fontColor=#333333;strokeColor=#666666;labelBackgroundColor=none;labelBorderColor=none;" vertex="1" parent="1">
          <mxGeometry x="630" y="240" width="160" height="130" as="geometry" />
        </mxCell>
        <mxCell id="PepKY24ciugbxsMnABmu-6" value="테스트 코드에 맞는&lt;br&gt;실제 코드 작성" style="rounded=0;whiteSpace=wrap;html=1;sketch=1;hachureGap=4;jiggle=2;curveFitting=1;fontFamily=Architects Daughter;fontSource=https%3A%2F%2Ffonts.googleapis.com%2Fcss%3Ffamily%3DArchitects%2BDaughter;fontSize=20;" vertex="1" parent="1">
          <mxGeometry x="440" y="240" width="160" height="130" as="geometry" />
        </mxCell>
        <mxCell id="PepKY24ciugbxsMnABmu-7" value="1. TDD를 통해 소스코드에 안정감이 부여된다.&amp;nbsp;&lt;br&gt;2. 실제 개발하면서 많은 시간이 소요되는 부분은 디버깅 부분인데 TDD를 통해 디버깅 시간과 실제 개발 시간도 줄어든다.&amp;nbsp;&lt;br&gt;3. 깨끗한 코드가 나올 확률이 높다" style="rounded=0;whiteSpace=wrap;html=1;sketch=1;hachureGap=4;jiggle=2;curveFitting=1;fontFamily=Architects Daughter;fontSource=https%3A%2F%2Ffonts.googleapis.com%2Fcss%3Ffamily%3DArchitects%2BDaughter;fontSize=20;" vertex="1" parent="1">
          <mxGeometry x="84" y="505" width="660" height="115" as="geometry" />
        </mxCell>
        <mxCell id="PepKY24ciugbxsMnABmu-8" value="Test Driven Development 좋은 점" style="rounded=0;whiteSpace=wrap;html=1;sketch=1;hachureGap=4;jiggle=2;curveFitting=1;fontFamily=Architects Daughter;fontSource=https%3A%2F%2Ffonts.googleapis.com%2Fcss%3Ffamily%3DArchitects%2BDaughter;fontSize=20;" vertex="1" parent="1">
          <mxGeometry x="160" y="440" width="480" height="40" as="geometry" />
        </mxCell>
      </root>
    </mxGraphModel>
  </diagram>
</mxfile>
